<?xml version="1.0" encoding="utf-8"?>
<!-- Generator: Adobe Illustrator 16.0.0, SVG Export Plug-In . SVG Version: 6.00 Build 0)  -->
<!DOCTYPE svg PUBLIC "-//W3C//DTD SVG 1.1//EN" "http://www.w3.org/Graphics/SVG/1.1/DTD/svg11.dtd">
<svg version="1.1" id="Layer_1" xmlns="http://www.w3.org/2000/svg" xmlns:xlink="http://www.w3.org/1999/xlink" x="0px" y="0px"
	 width="625.389px" height="683.475px" viewBox="0 0 625.389 683.475" enable-background="new 0 0 625.389 683.475"
	 xml:space="preserve">
<g>
	<path fill="#FFFFFF" d="M301.076,575.445c-33.16,25.08-78.76,55.17-103.01,51.99c-3.44-0.45-6.45-1.57-8.94-3.47
		c-24.02-18.34,0.47-39.181,0.47-39.181c13.74,26.83,49.62,17.971,82.99,1.67c8.16-3.989,16.17-8.42,23.67-12.869
		C297.836,574.166,299.446,574.796,301.076,575.445"/>
	<path fill="#FFFFFF" d="M186.109,227.679l-0.778,19.078C186.016,240.466,186.302,233.683,186.109,227.679"/>
	<path fill="#FFFFFF" d="M505.673,193.44c-1.982,0.448-3.691-0.101-5.127-1.645c-1.435-1.545-2.582-4.409-3.443-8.601
		c-0.852-4.182-1.104-10.613-0.752-19.262l2.15-52.768c0.338-8.269,1.621-14.71,3.871-19.315c-0.672-1.897-2.133-3.997-4.374-6.291
		c-2.251-2.293-5.018-4.333-8.312-6.108c-3.303-1.785-6.897-3.119-10.79-4.022c-3.903-0.903-8.021-0.86-12.369,0.108
		c-2.454,0.544-4.694,1.558-6.72,3.042c-2.025,1.473-4.107,3.154-6.245,5.023c-2.14,1.878-4.372,3.917-6.709,6.115
		c-2.337,2.198-5.047,4.479-8.14,6.853c-5.796,4.46-10.966,7.197-15.502,8.212c-5.478,1.227-9.659,0.248-12.517-2.93
		c-2.867-3.178-5.137-7.383-6.792-12.608c-1.707,0.573-3.518,1.346-5.427,2.337c-1.917,0.982-3.699,2.222-5.347,3.711
		c-1.654,1.479-3.041,3.289-4.159,5.401c-1.117,2.112-1.724,4.575-1.838,7.4c-0.23,5.639,1.591,10.126,5.482,13.449
		c3.893,3.323,8.96,4.288,15.194,2.895c2.827-0.627,5.445-1.636,7.847-3.007c2.39-1.371,4.892-3.049,7.501-5.033
		c2.61-1.985,5.412-4.143,8.417-6.494c2.994-2.341,6.323-4.763,9.985-7.266c5.586-3.856,10.264-6.204,14.043-7.043
		c1.885-0.424,3.761-0.38,5.617,0.143c1.659,0.561,2.871,1.636,3.652,3.235c0.781,1.6,1.308,3.482,1.599,5.657
		c0.28,2.175,0.421,4.472,0.419,6.892c-0.001,2.42-0.055,4.676-0.139,6.739l-1.241,30.474c-7.226-1.74-13.344-3.211-18.353-4.432
		c-4.999-1.201-9.505-2.11-13.507-2.706c-9.312-1.387-19.233-0.483-27.679,3.891c-9.324,4.828-14.811,13.63-19.234,22.834
		c-2.453,5.102-1.929,10.389-2.157,15.986c-0.347,8.506-0.692,17.011-1.04,25.517c-0.422,10.341,2.256,17.204,8.015,20.572
		c5.758,3.378,12.7,4.153,20.83,2.345c5.281-1.19,10.471-3.187,15.547-5.999c5.075-2.802,9.884-5.974,14.425-9.507
		c4.541-3.532,8.679-7.206,12.385-11.018c3.716-3.804,6.855-7.301,9.417-10.494c0.087,2.407,0.403,4.902,0.96,7.476
		c0.546,2.585,1.433,4.951,2.658,7.099s2.789,3.893,4.7,5.234c1.919,1.35,4.272,2.079,7.08,2.194c2.641-0.59,5.25-1.355,7.808-2.303
		c2.568-0.948,5.155-2.356,7.761-4.243c2.606-1.886,5.236-4.34,7.889-7.36c2.642-3.011,5.479-6.995,8.483-11.961
		C509.596,192.469,507.656,193.002,505.673,193.44 M463.969,186.537c-2.368,2.961-5.013,6.02-7.953,9.188
		c-2.941,3.178-6.057,6.109-9.348,8.803s-6.568,5.056-9.832,7.085c-3.273,2.039-6.511,3.414-9.722,4.133
		c-5.095,1.135-8.39,0.101-9.844-3.112c-1.455-3.212-2.076-7.55-1.854-13.004c0.429-10.497-0.975-21.626,1.632-32.073
		c1.269-5.087,3.318-10.427,8.437-12.64c5.831-2.522,12.395,0.048,18.22,1.254c7.107,1.473,14.215,2.945,21.322,4.417
		L463.969,186.537z"/>
	<path fill="#FFFFFF" d="M566.949,6.129c-3.178-2.453-8.355-2.887-15.532-1.282c-7.177,1.606-12.469,4.933-15.854,9.973
		c-3.388,5.049-5.667,10.397-6.832,16.063c0.72,5.251,2.631,8.963,5.722,11.166c3.091,2.203,8.236,2.491,15.412,0.886
		c7.177-1.605,12.504-4.836,15.981-9.723c3.477-4.868,5.789-10.051,6.956-15.532C572.071,12.439,570.127,8.592,566.949,6.129"/>
	<path fill="#FFFFFF" d="M610.678,359.603c-3.892-3.323-8.95-4.298-15.184-2.905c-2.837,0.637-5.407,1.634-7.71,2.982
		c-2.303,1.357-4.665,3.001-7.079,4.938c-2.423,1.938-4.99,4.048-7.7,6.329c-2.72,2.291-5.999,4.701-9.847,7.231
		c-5.586,3.865-10.265,6.214-14.044,7.053c-1.895,0.425-3.761,0.38-5.617-0.144c-1.66-0.56-2.879-1.684-3.646-3.371
		c-0.777-1.697-1.312-3.629-1.593-5.804c-0.291-2.165-0.433-4.413-0.425-6.756c-0.002-2.322,0.048-4.52,0.133-6.592l2.44-59.863
		c0.604-14.856,2.705-26.276,6.309-34.261c3.593-7.975,9.937-12.983,19.008-15.013c7.55-1.688,13.782-0.651,18.688,3.101
		c4.906,3.752,7.149,10.516,6.751,20.299c-0.291,7.146-1.939,13.2-4.952,18.157c-3.004,4.966-6.829,9.076-11.457,12.349
		c-4.618,3.272-9.781,5.814-15.468,7.644c-5.698,1.831-11.465,3.216-17.301,4.145c3.616,2.924,8.554,4.713,14.802,5.359
		c6.248,0.665,12.862,0.204,19.852-1.355c5.292-1.18,10.515-3.051,15.677-5.603c5.163-2.552,9.786-5.717,13.872-9.525
		c4.084-3.798,7.45-8.329,10.097-13.584c2.646-5.245,4.112-11.167,4.382-17.744c0.26-6.392-0.77-12.178-3.087-17.348
		c-2.319-5.17-5.798-9.328-10.445-12.486c-4.647-3.157-10.462-5.166-17.45-6.027c-6.988-0.862-15.106-0.264-24.364,1.812
		c-9.642,2.149-17.957,5.223-24.949,9.202c-7.001,3.99-12.881,8.15-17.64,12.472c-4.769,4.332-8.534,8.43-11.319,12.314
		c-2.775,3.884-4.678,6.875-5.696,8.964c1.443,1.349,2.452,2.852,3.046,4.488c0.585,1.646,0.802,4.438,0.642,8.387l-3.185,71.211
		c-0.337,8.27-1.631,14.71-3.871,19.315c0.858,1.859,2.368,3.938,4.512,6.256c2.152,2.317,4.881,4.368,8.175,6.143
		c3.302,1.785,6.944,3.117,10.937,3.987c3.981,0.89,8.06,0.859,12.221-0.073c2.455-0.544,4.695-1.567,6.721-3.042
		c2.024-1.473,4.107-3.153,6.246-5.022c2.129-1.878,4.372-3.917,6.709-6.115s5.046-4.479,8.139-6.853
		c5.795-4.461,10.867-7.175,15.217-8.152c5.105-1.135,8.992-0.095,11.673,3.129c2.67,3.224,4.843,7.443,6.497,12.668
		c1.717-0.574,3.519-1.347,5.437-2.338c1.908-0.982,3.689-2.222,5.346-3.71c1.647-1.489,3.033-3.289,4.151-5.401
		c1.117-2.111,1.732-4.586,1.848-7.399C616.401,367.401,614.57,362.926,610.678,359.603"/>
	<path fill="#FFFFFF" d="M194.242,28.14l-7.521,184.538c0.193,6.004-0.094,12.787-0.778,19.078
		c-0.649,5.909-1.651,11.393-2.944,15.425c-4.514,14.09-19.597,23.983-33.979,26.209c7.518,7.457,15.949,10.399,24.253,10.722
		c18.116,0.683,34.585-11.001,41.716-27.242c2.186-4.944,3.495-10.322,3.722-15.894l8.466-207.708l-17.953-4.566
		C200.318,30.199,194.61,19.117,194.242,28.14"/>
	<path fill="#FFFFFF" d="M165.985,488.697l1.488-36.513l1.746-41.402l2.496-61.231c0.099-2.444,0.299-4.959,0.589-7.547
		c0.29-2.577,0.769-5.016,1.417-7.305c0.657-2.289,1.627-4.367,2.93-6.242c1.292-1.875,3.084-3.35,5.374-4.414
		c1.714-0.759,3.648-1.195,5.812-1.298c2.155-0.113,4.196,0.413,6.114,1.567c1.918,1.155,3.658,3.088,5.24,5.818
		c1.572,2.72,2.632,6.543,3.181,11.45c2.656-0.972,5.369-2.131,8.149-3.497c2.76-1.366,5.313-2.909,7.631-4.638
		c2.318-1.729,4.22-3.784,5.728-6.176c1.499-2.39,2.309-5.085,2.432-8.095c0.291-7.145-2.21-12.366-7.505-15.654
		c-5.303-3.298-12.103-4.011-20.409-2.157c-7.187,1.606-14.656,4.676-22.429,9.203c-7.763,4.535-14.727,8.796-20.882,12.782
		c-4.425,2.846-8.928,5.44-13.518,7.765c-4.579,2.334-9.053,3.98-13.393,4.959c-5.292,1.181-9.872,0.899-13.731-0.854
		c-3.859-1.743-6.402-5.928-7.63-12.555c-5.106,1.144-9.84,3.699-14.214,7.654c-4.373,3.955-6.688,8.943-6.933,14.965
		c-0.276,6.772,1.862,11.842,6.404,15.208s10.313,4.265,17.303,2.706c2.072-0.471,4.587-1.31,7.545-2.526
		c2.949-1.217,6.005-2.692,9.169-4.425c3.155-1.732,6.322-3.554,9.485-5.481c3.171-1.908,6.194-3.753,9.077-5.513
		c-2.663,5.439-4.507,11.767-5.55,18.989c-1.044,7.223-1.691,14.04-1.952,20.431l-3.11,71.053
		c-1.558,31.55-0.49,31.699-1.983,36.354"/>
	<path fill="#FFFFFF" d="M594.354,198.24c-7.846,7.769-16.228,11.246-24.271,12.172c-10.164,1.165-19.438-1.667-26.527-7.189
		c-8.873-6.916-14.324-18.044-13.803-30.818l1.348-34.264l1.098-26.956c0.337-8.268,0.098-15.021-0.721-20.249
		c-0.819-5.219-2.925-9.87-6.309-13.964c4.337-5.437,8.83-9.944,13.469-13.49c4.639-3.556,9.702-6.036,15.188-7.449
		c3.358,0.182,5.973,1.701,7.821,4.547c1.849,2.846,3.1,5.315,3.764,7.397l-3.495,85.783c-0.146,3.597-0.096,6.874,0.163,9.83
		c0.139,2.815,0.391,5.459,0.751,7.817c0.077,0.514,0.153,1.028,0.24,1.513c0.158,0.891,0.328,1.743,0.529,2.546
		c0.099,0.415,0.209,0.821,0.339,1.226c0.068,0.231,0.137,0.463,0.225,0.684c0.319,0.992,0.708,1.953,1.157,2.882
		c0.17,0.365,0.351,0.719,0.54,1.063c0.099,0.191,0.208,0.382,0.317,0.573c0.136,0.248,0.281,0.496,0.437,0.744
		c0.21,0.343,0.431,0.676,0.659,1.009c0.064,0.105,0.138,0.209,0.221,0.313c0.156,0.238,0.331,0.475,0.506,0.713
		c0.028,0.038,0.047,0.066,0.074,0.094C573.999,192.608,584.201,197.443,594.354,198.24"/>
	<path fill="#FFFFFF" d="M389.616,242.619c-7.693,7.607-15.896,11.008-23.785,11.919c-9.196,1.059-17.682-1.276-24.417-5.943
		c-1.211-0.841-2.37-1.762-3.469-2.735c-0.479-0.43-0.947-0.871-1.395-1.331c-0.215-0.217-0.42-0.433-0.635-0.649
		c-6.493-6.813-10.388-16.284-9.958-26.83l2.77-67.956c0.107-2.629,0.087-5.468-0.072-8.506c-0.158-3.048-0.746-5.797-1.764-8.275
		c-1.027-2.478-2.544-4.419-4.538-5.835c-2.005-1.416-4.804-1.727-8.387-0.924c-3.967,0.885-7.912,3.4-11.826,7.533
		c-3.914,4.142-7.434,8.884-10.551,14.236c-3.118,5.361-5.683,10.778-7.687,16.262c-2.003,5.474-3.073,10.004-3.219,13.581
		l-1.621,39.779c-0.044,1.065-0.067,2.11-0.078,3.116l-0.75,19.818c-0.169,4.144-0.699,11.659-3.877,18.759
		c-2.355,5.263-6.17,10.31-12.373,13.575c-18.8,9.891-25.031-7.403-25.031-7.403c3.605-0.842,5.827-4.06,7.208-7.861
		c2.511-6.938,2.182-15.834,2.182-15.834l4.846-118.877c0.337-8.268,0.094-14.972-0.728-20.103c-0.822-5.13-2.93-9.732-6.314-13.826
		c0.043-0.057,0.087-0.113,0.13-0.169c6.587-8.502,16.343-13.967,26.681-15.218l3.065-0.371c4.831-0.584,9.192,2.14,10.631,6.64
		l0.02,0.063l-3.278,80.417c1.908-5.275,4.369-10.766,7.413-16.476c3.045-5.709,6.58-11.067,10.627-16.073
		c4.036-4.997,8.475-9.345,13.304-13.036c4.83-3.69,10.091-6.265,15.763-7.714c4.349-0.979,8.466-1.011,12.369-0.109
		c3.893,0.903,7.487,2.238,10.78,4.023c3.304,1.775,6.071,3.814,8.322,6.108c2.24,2.294,3.702,4.394,4.374,6.29
		c-1.417,2.553-2.369,5.381-2.875,8.475c-0.496,3.093-0.828,6.706-0.996,10.84l-1.878,46.073
		c-1.247,11.027-0.992,24.581,0.875,32.227c1.177,4.775,3.732,8.901,7.176,12.271C372.569,238.391,381.112,241.943,389.616,242.619"
		/>
	<path fill="#FFFFFF" d="M358.614,187.916c-0.002,0.049-0.014,0.108-0.016,0.157l0.006-0.157H358.614z"/>
	<path fill="#FFFFFF" d="M278.983,220.061c0.012-1.006,0.035-2.051,0.078-3.116l0.573-14.045L278.983,220.061z"/>
	<path fill="#FFFFFF" d="M479.235,393.861c-0.209-0.831-0.387-1.731-0.55-2.729c-0.032-0.175-0.054-0.359-0.085-0.544
		s-0.063-0.368-0.084-0.563c-0.083-0.602-0.164-1.224-0.235-1.884c-0.02-0.214-0.041-0.428-0.061-0.652
		c-0.824-8.905-0.966-11.633,0.818-39.902l1.766-43.308c0.169-4.144,0.491-7.757,0.997-10.851c0.506-3.093,1.458-5.921,2.875-8.474
		c-0.673-1.896-1.986-4.031-3.952-6.385c-1.968-2.353-4.41-4.464-7.32-6.332c-2.921-1.858-6.19-3.273-9.799-4.236
		c-3.619-0.962-7.597-0.964-11.938,0.004c-5.682,1.459-10.599,3.953-14.771,7.5c-4.172,3.538-7.754,7.649-10.756,12.322
		c-2.992,4.683-5.594,9.78-7.783,15.3c-2.19,5.52-4.057,10.969-5.579,16.346c0.168-4.134,0.412-7.968,0.75-11.495
		c0.328-3.515,0.651-6.894,0.968-10.137c-0.671-1.906-1.893-3.908-3.684-6.034c-1.782-2.117-3.954-3.955-6.518-5.524
		c-2.552-1.58-5.551-2.722-8.983-3.448c-3.435-0.726-7.32-0.604-11.669,0.364c-5.673,1.459-10.601,3.963-14.772,7.501
		s-7.754,7.648-10.746,12.321c-3.002,4.683-5.603,9.78-7.793,15.3c-2.19,5.53-4.047,10.97-5.579,16.348l1.434-28.277
		c-0.663-2.091-1.962-4.598-3.905-7.518c-1.944-2.921-4.595-4.467-7.953-4.649c-5.496,1.413-10.549,3.892-15.188,7.448
		c-4.639,3.547-9.136,8.141-13.48,13.774c3.383,4.094,5.492,8.697,6.314,13.827c0.822,5.13,1.064,11.834,0.727,20.104
		l-4.194,102.893c0,0,0.786,21.311-9.39,23.696c0,0,6.231,17.294,25.031,7.402c14.574-7.669,15.956-25.12,16.25-32.334l1.242-31.421
		l0.771-20.147c-0.099-2.329-0.104-4.836,0.006-7.524l1.621-39.779c0.168-4.134,0.973-9.072,2.432-14.799
		c1.449-5.726,3.502-11.221,6.148-16.476c2.646-5.245,5.912-9.704,9.816-13.369c3.886-3.673,8.261-5.296,13.108-4.889
		c1.686,0.179,2.912,1.117,3.68,2.814c0.777,1.688,1.345,3.754,1.713,6.179c0.368,2.435,0.506,5.026,0.395,7.743l-1.373,33.681
		l-2.513,50.917l-0.004,0.098l-0.602,14.544l-0.003,0.039l-0.956,22.764c-0.295,7.213-0.343,24.613,13.661,31.185
		c18.052,8.464,25.714-9.368,25.714-9.368c-10.013-1.613-7.484-23.052-7.484-23.052l0.984-24.15l1.688-39.273l1.622-39.779
		c0.168-4.134,0.973-9.074,2.432-14.8c1.44-5.735,3.492-11.22,6.139-16.476c2.646-5.245,5.922-9.705,9.816-13.378
		c3.895-3.664,8.271-5.288,13.118-4.89c1.675,0.189,2.902,1.127,3.679,2.814c0.769,1.698,1.346,3.754,1.713,6.189
		c0.368,2.435,0.496,5.016,0.386,7.743l-1.628,39.935l-2.021,46.479c-0.923,22.654,17.346,40.341,39.933,37.738
		c7.938-0.913,16.19-4.335,23.935-11.993C496.05,415.264,482.438,406.96,479.235,393.861"/>
	<path fill="#FFFFFF" d="M343.127,381.972c-0.1-2.328-0.104-4.836,0.005-7.524l0.415-10.174l0.287-0.128L343.127,381.972z"/>
	<path fill="#FFFFFF" d="M301.076,575.445c2.51,0.99,5.09,2.061,7.76,3.19c-200.78,156.43-291.11,105.609-306.38,52.58
		c-20.02-69.53,86.26-166,175.57-154.2c24.82,3.28,40.91,16.85,6.45,35.5c-75.7-41.75-163.18,28.37-128.82,107.24
		c20.33,46.649,75.65,38.979,142.41,7.68c23.75-11.13,48.94-25.25,74.52-40.98c7.19-4.42,14.42-8.979,21.65-13.619
		c0.67,0.239,1.34,0.489,2.02,0.75C297.836,574.166,299.446,574.796,301.076,575.445"/>
	<path fill="#FFFFFF" d="M620.706,453.056c-29.14-65.78-117.96-25.98-245.359,64.55c-7.521,5.35-15.141,10.72-22.83,16.061
		c-4.05-1.78-8.12-3.671-12.22-5.681c-98.33-48.189-101.33-5.85-101.33-5.85c36.34-10.79,55.63-0.78,101.69,19.76
		c2.87,1.28,5.84,2.6,8.93,3.96c20.58,9.061,46.25,19.82,80.15,31.561C599.646,636.235,640.807,498.436,620.706,453.056
		 M601.217,476.626c-6.521,50.01-108.9,113.939-240.37,60.56C473.566,451.976,611.916,394.666,601.217,476.626"/>
	<path fill="#FFFFFF" d="M414.802,5.909c0,0,9.138,77.066-93.392,48.508C218.879,25.859,79.778-33.015,42.221,23.926
		C0.83,86.679,83.802,150.669,128.248,118.539c-8.587-0.563-30.259-9.747-30.325-38.911c-0.094-41.244,41.794-71.012,163.738-33.384
		c121.943,37.628,167.204,40.333,178.008,15.119C450.474,36.15,432.382,10.932,414.802,5.909"/>
	<path fill="#FFFFFF" d="M236.851,556.995l1.495-23.081l4.385-0.585l7.498,21.881l-3.803,0.507l-1.581-5.071l-3.913,0.522
		l-0.223,5.313L236.851,556.995z M241,548.504l3.053-0.408l-2.786-9.232L241,548.504z"/>
	<path fill="#FFFFFF" d="M263.555,555.94c-1.673-0.151-2.947-0.576-3.82-1.272c-0.875-0.699-1.437-1.631-1.687-2.797
		c-0.251-1.166-0.305-2.539-0.161-4.118l1.384-15.282l4.016,0.363l-1.427,15.756c-0.065,0.707-0.078,1.375-0.042,2.006
		c0.037,0.632,0.21,1.153,0.519,1.565c0.309,0.413,0.808,0.649,1.496,0.712c0.725,0.065,1.267-0.077,1.627-0.429
		c0.36-0.352,0.619-0.834,0.778-1.447c0.158-0.614,0.27-1.273,0.334-1.98L268,533.262l3.987,0.36l-1.384,15.282
		c-0.143,1.58-0.443,2.921-0.899,4.023c-0.456,1.102-1.172,1.918-2.148,2.447C266.58,555.905,265.246,556.094,263.555,555.94"/>
	<polygon fill="#FFFFFF" points="280.154,558.608 285.462,539.713 281.985,538.735 282.81,535.797 293.701,538.855 292.875,541.795 
		289.452,540.832 284.144,559.729 	"/>
	<polygon fill="#FFFFFF" points="294.179,563.017 302.523,541.927 306.35,543.44 302.858,552.268 307.154,553.967 310.646,545.141 
		314.499,546.665 306.156,567.755 302.303,566.229 306.073,556.7 301.777,555.001 298.007,564.53 	"/>
	<polygon fill="#FFFFFF" points="313.75,571.053 322.896,550.299 331.606,554.138 330.433,556.802 325.513,554.635 322.882,560.604 
		326.75,562.31 325.588,564.949 321.719,563.243 318.693,570.11 323.665,572.301 322.513,574.914 	"/>
	<polygon fill="#FFFFFF" points="329.035,577.841 338.29,557.135 340.924,558.312 340.681,572.373 345.959,560.563 349.077,561.957 
		339.823,582.662 337.316,581.543 337.786,566.908 332.256,579.28 	"/>
	<polygon fill="#FFFFFF" points="349.311,586.85 357.161,568.859 353.851,567.415 355.07,564.619 365.438,569.142 364.218,571.939 
		360.959,570.517 353.109,588.507 	"/>
	
		<rect x="357.599" y="580.908" transform="matrix(-0.3893 0.9211 -0.9211 -0.3893 1049.5243 470.0303)" fill="#FFFFFF" width="22.679" height="4.088"/>
	<path fill="#FFFFFF" d="M379.427,599.9c-1.54-0.624-2.624-1.415-3.252-2.375s-0.903-2.033-0.824-3.22
		c0.077-1.188,0.394-2.464,0.948-3.83l3.039-7.5c0.582-1.436,1.26-2.611,2.034-3.526c0.773-0.915,1.713-1.48,2.817-1.697
		c1.105-0.217,2.427-0.014,3.968,0.61c1.453,0.589,2.49,1.297,3.112,2.123c0.621,0.826,0.92,1.768,0.895,2.825
		c-0.026,1.057-0.284,2.191-0.775,3.401l-0.715,1.765l-3.686-1.493l0.737-1.816c0.238-0.588,0.425-1.137,0.561-1.646
		s0.128-0.961-0.024-1.354c-0.153-0.395-0.558-0.725-1.215-0.991s-1.199-0.31-1.624-0.129c-0.426,0.18-0.785,0.507-1.078,0.982
		c-0.294,0.475-0.57,1.033-0.829,1.673l-3.703,9.134c-0.309,0.762-0.502,1.413-0.58,1.955c-0.079,0.542-0.01,1.004,0.209,1.384
		c0.218,0.381,0.604,0.684,1.158,0.908c0.639,0.259,1.155,0.292,1.546,0.098c0.391-0.193,0.723-0.527,0.995-1.002
		c0.272-0.473,0.535-1.021,0.788-1.645l0.768-1.894l3.685,1.493l-0.683,1.687c-0.506,1.246-1.117,2.282-1.835,3.109
		c-0.718,0.826-1.599,1.346-2.641,1.558C382.18,600.699,380.915,600.504,379.427,599.9"/>
	<polygon fill="#FFFFFF" points="404.981,609.535 411.839,591.145 408.454,589.883 409.521,587.022 420.119,590.975 
		419.054,593.834 415.722,592.592 408.864,610.983 	"/>
	<polygon fill="#FFFFFF" points="418.506,614.524 426.063,593.141 429.944,594.512 426.781,603.462 431.137,605.001 434.3,596.051 
		438.207,597.432 430.65,618.815 426.743,617.435 430.157,607.772 425.802,606.233 422.387,615.896 	"/>
	<path fill="#FFFFFF" d="M437.579,621.204l10.908-20.396l4.234,1.281l-2.225,23.021l-3.672-1.109l0.658-5.272l-3.778-1.143
		l-2.4,4.744L437.579,621.204z M444.869,615.189l2.947,0.892l1.282-9.559L444.869,615.189z"/>
	
		<rect x="450.999" y="614.368" transform="matrix(-0.2367 0.9716 -0.9716 -0.2367 1170.6685 313.1131)" fill="#FFFFFF" width="22.68" height="4.088"/>
	<path fill="#FFFFFF" d="M487.856,632.933c-1.649-0.201-2.902-0.683-3.759-1.444c-0.857-0.763-1.403-1.727-1.638-2.893
		c-0.234-1.167-0.262-2.481-0.084-3.945l0.977-8.033c0.187-1.538,0.534-2.85,1.042-3.935s1.268-1.877,2.276-2.375
		c1.011-0.497,2.341-0.646,3.99-0.445c1.557,0.188,2.742,0.602,3.559,1.236c0.815,0.635,1.35,1.466,1.601,2.493
		c0.251,1.028,0.298,2.189,0.14,3.487l-0.229,1.89l-3.947-0.48l0.236-1.945c0.077-0.63,0.114-1.208,0.112-1.735
		c-0.002-0.526-0.128-0.96-0.378-1.301s-0.727-0.553-1.431-0.64c-0.705-0.086-1.239,0.015-1.602,0.299
		c-0.364,0.285-0.626,0.695-0.785,1.23s-0.28,1.146-0.363,1.831l-1.189,9.784c-0.099,0.816-0.116,1.495-0.051,2.039
		s0.253,0.972,0.563,1.281c0.311,0.311,0.762,0.502,1.355,0.574c0.685,0.083,1.191-0.02,1.518-0.31
		c0.327-0.289,0.56-0.698,0.699-1.226c0.14-0.529,0.25-1.126,0.331-1.793l0.247-2.03l3.946,0.48l-0.22,1.807
		c-0.162,1.334-0.481,2.494-0.959,3.479c-0.477,0.985-1.191,1.717-2.142,2.193C490.723,632.984,489.45,633.126,487.856,632.933"/>
	<path fill="#FFFFFF" d="M508.569,634.332c-1.68-0.02-2.983-0.344-3.909-0.971s-1.56-1.511-1.9-2.654
		c-0.342-1.143-0.502-2.507-0.484-4.094l0.181-15.343l4.031,0.047l-0.186,15.819c-0.009,0.71,0.03,1.377,0.116,2.004
		c0.087,0.626,0.299,1.133,0.641,1.52c0.341,0.387,0.856,0.584,1.547,0.592c0.728,0.009,1.258-0.177,1.589-0.556
		c0.331-0.378,0.552-0.88,0.661-1.504c0.11-0.624,0.17-1.29,0.178-2l0.187-15.819l4.004,0.048l-0.181,15.343
		c-0.019,1.587-0.213,2.947-0.579,4.081c-0.369,1.135-1.019,2.004-1.95,2.609C511.583,634.061,510.268,634.352,508.569,634.332"/>
	
		<rect x="513.385" y="619.994" transform="matrix(0.0952 0.9955 -0.9955 0.0952 1093.9829 40.4779)" fill="#FFFFFF" width="22.68" height="4.088"/>
	<path fill="#FFFFFF" d="M542.462,631.043c-1.333,0.287-2.502,0.268-3.508-0.06c-1.007-0.326-1.847-0.942-2.519-1.848
		c-0.673-0.906-1.194-2.081-1.564-3.53l3.328-1.434c0.222,0.85,0.49,1.584,0.806,2.203c0.314,0.62,0.688,1.069,1.121,1.348
		c0.433,0.279,0.94,0.355,1.524,0.229c0.657-0.142,1.08-0.438,1.27-0.89c0.188-0.451,0.219-0.978,0.089-1.58
		c-0.209-0.967-0.6-1.714-1.171-2.239c-0.572-0.525-1.29-1.021-2.153-1.483l-3.325-1.86c-0.929-0.506-1.717-1.123-2.361-1.854
		c-0.645-0.729-1.1-1.705-1.362-2.928c-0.378-1.752-0.159-3.213,0.658-4.382c0.816-1.169,2.109-1.945,3.881-2.327
		c1.04-0.225,1.94-0.252,2.703-0.083c0.762,0.17,1.41,0.494,1.941,0.971c0.533,0.477,0.978,1.054,1.334,1.731
		s0.648,1.412,0.877,2.202l-3.318,1.347c-0.188-0.685-0.398-1.289-0.635-1.811c-0.237-0.521-0.539-0.905-0.907-1.15
		s-0.844-0.305-1.428-0.179c-0.603,0.13-1.021,0.426-1.255,0.887c-0.235,0.462-0.289,0.983-0.163,1.567
		c0.16,0.749,0.449,1.331,0.864,1.747c0.414,0.417,0.969,0.817,1.663,1.202l3.29,1.839c1.077,0.57,2.051,1.3,2.922,2.191
		c0.87,0.891,1.462,2.066,1.778,3.525c0.228,1.059,0.198,2.049-0.09,2.971c-0.288,0.921-0.797,1.704-1.526,2.349
		S543.574,630.803,542.462,631.043"/>
	
		<rect x="542.294" y="613.704" transform="matrix(0.3371 0.9415 -0.9415 0.3371 946.691 -113.0619)" fill="#FFFFFF" width="22.681" height="4.088"/>
	<polygon fill="#FFFFFF" points="568.022,622.213 557.195,602.284 559.729,600.907 570.751,609.641 564.576,598.274 
		567.578,596.644 578.405,616.572 575.994,617.882 564.653,608.621 571.122,620.528 	"/>
	<polygon fill="#FFFFFF" points="586.182,611.205 571.908,593.58 579.307,587.589 581.139,589.852 576.961,593.235 581.067,598.305 
		584.353,595.645 586.168,597.886 582.882,600.546 587.604,606.378 591.826,602.959 593.624,605.179 	"/>
	<path fill="#FFFFFF" d="M279.109,288.09c-3.178-2.453-8.356-2.887-15.532-1.282c-7.177,1.606-12.469,4.933-15.855,9.973
		c-3.387,5.049-5.667,10.397-6.832,16.063c0.72,5.251,2.631,8.963,5.722,11.166c3.092,2.193,8.236,2.491,15.412,0.886
		c7.177-1.604,12.504-4.836,15.981-9.714c3.477-4.877,5.789-10.06,6.956-15.541C284.231,294.4,282.287,290.553,279.109,288.09"/>
	<path fill="#FFFFFF" d="M280.426,475.741c-3.21,3.311-6.48,6.17-9.82,8.601c-1.42,1.029-2.86,1.989-4.3,2.859
		c-4.84,2.91-10.09,4.771-15.74,5.59c-3.45-0.479-6.48-2.05-9.09-4.729c-2.03-2.08-3.45-4.01-4.28-5.8
		c-0.24-0.521-0.43-1.03-0.57-1.53c0.82-3.41,1.52-6.6,2.11-9.56c0.59-2.95,1.02-6.28,1.27-9.98l3.35-47.966l1-20.08
		c0.14-3.42,0.18-6.58,0.12-9.48c-0.08-4.109-0.36-7.689-0.84-10.76c-0.82-5.229-2.92-9.88-6.31-13.97
		c4.34-5.44,8.83-9.95,13.47-13.49c4.64-3.56,9.7-6.04,15.19-7.45c3.36,0.181,5.97,1.7,7.82,4.54c1.85,2.851,3.1,5.32,3.76,7.41
		l-1.09,26.72l0.01-0.01l-3.08,70.756c-0.44,6.351-0.14,11.69,0.92,16.03C275.366,467.791,277.406,471.892,280.426,475.741"/>
</g>
</svg>
